<svg xmlns="http://www.w3.org/2000/svg" width="87" height="79" viewBox="0 0 87 79" fill="none"><path d="M38.77 24.2479L54.2707 32.7292C55.201 33.2487 55.5393 34.4085 55.056 35.3509C54.8748 35.6892 54.609 35.955 54.2707 36.1362L38.77 44.6175C37.8397 45.125 36.6678 44.7867 36.1603 43.8564C36.1603 43.8564 36.1603 43.8443 36.1603 43.8322C35.9912 43.5423 35.8945 43.216 35.8945 42.8898V25.9151C35.8945 24.8519 36.7523 23.9821 37.8276 23.9821C38.1538 24.0183 38.4679 24.1029 38.77 24.2479Z" fill="url(#paint0_linear_1720_445)"></path><path d="M41.6334 68.9017H10.946C7.56312 68.9017 4.83266 66.1592 4.83266 62.7884V10.946C4.83266 7.56312 7.5752 4.83266 10.946 4.83266H75.9332C79.3161 4.83266 82.0465 7.5752 82.0465 10.946V33.5628C82.0465 34.8918 83.1339 35.9792 84.4629 35.9792C85.7918 35.9792 86.8792 34.8918 86.8792 33.5628V10.946C86.8792 4.89307 83.1822 0 77.1414 0H10.946C4.90515 0 0 4.90515 0 10.946V62.7884C0 68.8413 4.90515 73.7344 10.946 73.7344H41.6213C42.9503 73.7344 44.0376 72.647 44.0376 71.318C44.0376 69.989 42.9503 68.9017 41.6213 68.9017H41.6334Z" fill="url(#paint1_linear_1720_445)"></path><path d="M84.5833 73.0578C83.2543 73.0578 82.167 71.9704 82.167 70.6414V49.4623C82.167 48.1333 83.2543 47.046 84.5833 47.046C85.9123 47.046 86.9997 48.1333 86.9997 49.4623V70.6414C86.9997 71.9704 85.9123 73.0578 84.5833 73.0578Z" fill="url(#paint2_linear_1720_445)"></path><path d="M74.2904 78.9295C72.9614 78.9295 71.874 77.8421 71.874 76.5132V43.5906C71.874 42.2617 72.9614 41.1743 74.2904 41.1743C75.6193 41.1743 76.7067 42.2617 76.7067 43.5906V76.5132C76.7067 77.8421 75.6193 78.9295 74.2904 78.9295Z" fill="url(#paint3_linear_1720_445)"></path><path d="M64.3109 66.3887C62.9819 66.3887 61.8945 65.3013 61.8945 63.9724V56.1314C61.8945 54.8024 62.9819 53.715 64.3109 53.715C65.6398 53.715 66.7272 54.8024 66.7272 56.1314V63.9724C66.7272 65.3013 65.6398 66.3887 64.3109 66.3887Z" fill="url(#paint4_linear_1720_445)"></path><path d="M54.1986 71.7771C52.8696 71.7771 51.7822 70.6898 51.7822 69.3608V50.7309C51.7822 49.4019 52.8696 48.3146 54.1986 48.3146C55.5275 48.3146 56.6149 49.4019 56.6149 50.7309V69.3608C56.6149 70.6898 55.5275 71.7771 54.1986 71.7771Z" fill="url(#paint5_linear_1720_445)"></path><defs><linearGradient id="paint0_linear_1720_445" x1="-0.543745" y1="-6.01669" x2="90.999" y2="82.6385" gradientUnits="userSpaceOnUse"><stop stop-color="#8360FF"></stop><stop offset="1" stop-color="#D3137A"></stop></linearGradient><linearGradient id="paint1_linear_1720_445" x1="-0.531592" y1="-6.04083" x2="91.0111" y2="82.6264" gradientUnits="userSpaceOnUse"><stop stop-color="#8360FF"></stop><stop offset="1" stop-color="#D3137A"></stop></linearGradient><linearGradient id="paint2_linear_1720_445" x1="7.64734" y1="-14.4738" x2="99.1901" y2="74.1934" gradientUnits="userSpaceOnUse"><stop stop-color="#8360FF"></stop><stop offset="1" stop-color="#D3137A"></stop></linearGradient><linearGradient id="paint3_linear_1720_445" x1="2.65822" y1="-9.327" x2="94.2009" y2="79.3403" gradientUnits="userSpaceOnUse"><stop stop-color="#8360FF"></stop><stop offset="1" stop-color="#D3137A"></stop></linearGradient><linearGradient id="paint4_linear_1720_445" x1="-2.17449" y1="-4.33733" x2="89.3682" y2="84.3179" gradientUnits="userSpaceOnUse"><stop stop-color="#8360FF"></stop><stop offset="1" stop-color="#D3137A"></stop></linearGradient><linearGradient id="paint5_linear_1720_445" x1="-7.06752" y1="0.71286" x2="84.4752" y2="89.3801" gradientUnits="userSpaceOnUse"><stop stop-color="#8360FF"></stop><stop offset="1" stop-color="#D3137A"></stop></linearGradient></defs></svg>