<svg xmlns="http://www.w3.org/2000/svg" width="73" height="79" viewBox="0 0 73 79" fill="none"><path d="M57.889 78.6361C57.0555 78.6361 56.2684 78.3814 55.5854 77.9068L44.6926 70.1164H41.0925C39.4719 70.1164 37.9439 69.4913 36.7979 68.3337C35.6519 67.1877 35.0269 65.6597 35.0269 64.0391V51.4447C35.0269 49.8241 35.6519 48.3076 36.7979 47.1501C37.9439 46.0041 39.4719 45.3674 41.0925 45.3674H44.6926L55.5854 37.5769C56.1758 37.1486 56.8819 36.9055 57.6112 36.8477C57.7038 36.8477 57.7964 36.8477 57.889 36.8477C58.5256 36.8477 59.1507 36.9981 59.7179 37.2875H59.7527C60.3893 37.6348 60.9102 38.1441 61.2806 38.7461C61.6626 39.3712 61.8594 40.0889 61.8594 40.8066V74.6425C61.8594 75.6843 61.4311 76.7145 60.7019 77.4438C59.9726 78.1731 58.9539 78.6014 57.9005 78.6014L57.889 78.6361ZM41.0925 49.1179C40.479 49.1179 39.8771 49.3726 39.4372 49.8009C39.0089 50.2292 38.7542 50.8312 38.7542 51.4447V64.0391C38.7542 64.6526 38.9973 65.2545 39.4372 65.6828C39.8771 66.1227 40.479 66.3658 41.0925 66.3658H45.2945C45.6881 66.3658 46.0586 66.4816 46.3711 66.7247L58.1205 75.1171V40.3783L46.3711 48.7591C46.047 48.9906 45.6766 49.1179 45.283 49.1179H41.081H41.0925Z" fill="url(#paint0_linear_1792_454)"></path><path d="M68.8397 65.9607C68.504 65.9607 68.1799 65.8681 67.9021 65.706C67.4738 65.4629 67.1612 65.0462 67.0339 64.5716C66.9065 64.097 66.976 63.5761 67.2307 63.1478C69.1175 59.8255 69.1059 55.7277 67.2307 52.417C66.9529 51.9772 66.8718 51.4331 66.9876 50.9585C67.1034 50.4607 67.4274 50.044 67.8673 49.7893C68.1451 49.6273 68.4693 49.5347 68.805 49.5347C68.9786 49.5347 69.1522 49.5578 69.3259 49.6041C69.8121 49.743 70.2172 50.0787 70.4487 50.5186C71.7336 52.7527 72.3934 55.2415 72.3934 57.765C72.3934 60.2885 71.7221 62.8005 70.4603 64.9999C70.2172 65.4282 69.7889 65.7523 69.3259 65.8796C69.1638 65.9259 69.0017 65.9491 68.8397 65.9491V65.9607Z" fill="url(#paint1_linear_1792_454)"></path><path d="M17.2696 78.2193C12.7782 78.2193 8.55309 76.4714 5.36976 73.2881C2.18643 70.1047 0.438477 65.8796 0.438477 61.3882V17.6666C0.438477 13.1752 2.18643 8.95005 5.36976 5.76672C8.55309 2.58339 12.7782 0.835449 17.2696 0.835449H46.4174C50.9087 0.835449 55.1339 2.58339 58.3172 5.76672C61.5006 8.95005 63.2485 13.1752 63.2485 17.6666V24.9593C63.2485 25.758 62.8202 26.5105 62.1257 26.9156C61.7784 27.1124 61.3964 27.2166 61.0028 27.2166C60.6092 27.2166 60.2157 27.1124 59.88 26.9156C59.1854 26.5105 58.7571 25.7696 58.7571 24.9593V17.6666C58.7571 14.3791 57.4722 11.2768 55.1455 8.95005C52.8188 6.62332 49.728 5.33842 46.4405 5.33842H17.2928C14.0053 5.33842 10.903 6.62332 8.57623 8.95005C6.2495 11.2768 4.9646 14.3675 4.9646 17.6666V61.3882C4.9646 64.6757 6.2495 67.778 8.57623 70.1047C10.903 72.4315 13.9937 73.7164 17.2928 73.7164H24.5855C25.3842 73.7164 26.1367 74.1447 26.5418 74.8392C26.947 75.5338 26.947 76.4019 26.5418 77.0965C26.1367 77.791 25.3958 78.2193 24.5855 78.2193H17.2928H17.2696Z" fill="url(#paint2_linear_1792_454)"></path><path d="M17.2694 41.7788C16.4707 41.7788 15.7183 41.3505 15.3131 40.656C14.908 39.9615 14.908 39.0933 15.3131 38.3987C15.7183 37.7042 16.4591 37.2759 17.2694 37.2759H28.197C28.9957 37.2759 29.7481 37.7042 30.1533 38.3987C30.5584 39.0933 30.5584 39.9615 30.1533 40.656C29.7481 41.3505 29.0073 41.7788 28.197 41.7788H17.2694Z" fill="url(#paint3_linear_1792_454)"></path><path d="M17.2694 56.3526C16.4707 56.3526 15.7183 55.9243 15.3131 55.2297C14.908 54.5352 14.908 53.667 15.3131 52.9725C15.7183 52.2779 16.4591 51.8496 17.2694 51.8496H24.5622C25.3609 51.8496 26.1133 52.2779 26.5185 52.9725C26.9236 53.667 26.9236 54.5352 26.5185 55.2297C26.1133 55.9243 25.3725 56.3526 24.5622 56.3526H17.2694Z" fill="url(#paint4_linear_1792_454)"></path><path d="M17.2694 27.2051C16.4707 27.2051 15.7183 26.7768 15.3131 26.0823C14.908 25.3877 14.908 24.5195 15.3131 23.825C15.7183 23.1305 16.4591 22.7021 17.2694 22.7021H46.4172C47.2159 22.7021 47.9683 23.1305 48.3735 23.825C48.7786 24.5195 48.7786 25.3877 48.3735 26.0823C47.9683 26.7768 47.2275 27.2051 46.4172 27.2051H17.2694Z" fill="url(#paint5_linear_1792_454)"></path><defs><linearGradient id="paint0_linear_1792_454" x1="-2.07341" y1="1.61108" x2="73.3194" y2="78.1036" gradientUnits="userSpaceOnUse"><stop stop-color="#8360FF"></stop><stop offset="1" stop-color="#D3137A"></stop></linearGradient><linearGradient id="paint1_linear_1792_454" x1="13.7625" y1="1.90047" x2="80.1841" y2="69.2943" gradientUnits="userSpaceOnUse"><stop stop-color="#8360FF"></stop><stop offset="1" stop-color="#D3137A"></stop></linearGradient><linearGradient id="paint2_linear_1792_454" x1="-6.4954" y1="0.615509" x2="71.0621" y2="79.319" gradientUnits="userSpaceOnUse"><stop stop-color="#8360FF"></stop><stop offset="1" stop-color="#D3137A"></stop></linearGradient><linearGradient id="paint3_linear_1792_454" x1="-5.91679" y1="10.4549" x2="59.9145" y2="77.247" gradientUnits="userSpaceOnUse"><stop stop-color="#8360FF"></stop><stop offset="1" stop-color="#D3137A"></stop></linearGradient><linearGradient id="paint4_linear_1792_454" x1="-11.3458" y1="21.3591" x2="51.3832" y2="85.0141" gradientUnits="userSpaceOnUse"><stop stop-color="#8360FF"></stop><stop offset="1" stop-color="#D3137A"></stop></linearGradient><linearGradient id="paint5_linear_1792_454" x1="2.69558" y1="-4.6282" x2="75.4492" y2="69.1903" gradientUnits="userSpaceOnUse"><stop stop-color="#8360FF"></stop><stop offset="1" stop-color="#D3137A"></stop></linearGradient></defs></svg>