<svg xmlns="http://www.w3.org/2000/svg" width="80" height="80" viewBox="0 0 80 80" fill="none"><path d="M21.6802 79.377C20.8699 79.377 20.0827 79.215 19.3303 78.914C18.2306 78.451 17.293 77.6754 16.6332 76.6799C15.9618 75.6728 15.6145 74.5036 15.6145 73.2998V64.3286L14.5032 64.097C10.6138 63.2983 7.09475 61.1684 4.58281 58.1008C2.07087 55.0332 0.693359 51.1554 0.693359 47.1849V17.3542C0.693359 12.747 2.48759 8.40611 5.75196 5.15333C9.01632 1.88897 13.3457 0.0947266 17.9528 0.0947266H62.7162C67.3234 0.0947266 71.6643 1.88897 74.9171 5.15333C78.1814 8.41769 79.9757 12.747 79.9757 17.3542V47.1965C79.9757 51.8036 78.1814 56.1445 74.9171 59.3973C71.6527 62.6616 67.3234 64.4559 62.7162 64.4559H39.1248L25.9632 77.5828C24.8172 78.7288 23.3008 79.3655 21.6802 79.377ZM17.9528 4.77133C14.5958 4.77133 11.4356 6.07939 9.06262 8.45242C6.68959 10.8254 5.38154 13.9856 5.38154 17.3426V47.1849C5.38154 50.5418 6.68959 53.702 9.06262 56.0751C11.4356 58.4481 14.5958 59.7561 17.9528 59.7561C18.5779 59.7561 19.1683 59.9992 19.6081 60.4391C20.048 60.879 20.2911 61.4693 20.2911 62.0944V76.6336L36.4972 60.4275C36.937 59.9992 37.5158 59.7561 38.1293 59.7561H62.7047C66.0616 59.7561 69.2218 58.4481 71.5948 56.0751C73.9678 53.702 75.2759 50.5418 75.2759 47.1849V17.3542C75.2759 13.9972 73.9678 10.837 71.5948 8.46399C69.2218 6.09096 66.0616 4.78291 62.7047 4.78291H17.9412L17.9528 4.77133Z" fill="url(#paint0_linear_1792_438)"></path><path d="M21.6801 40.9222C20.8466 40.9222 20.0711 40.4708 19.6543 39.7531C19.2376 39.0354 19.2376 38.1325 19.6543 37.4148C20.0711 36.6971 20.8466 36.2456 21.6801 36.2456H58.9887C59.8222 36.2456 60.5978 36.6971 61.0145 37.4148C61.4312 38.1325 61.4312 39.0354 61.0145 39.7531C60.5978 40.4708 59.8222 40.9222 58.9887 40.9222H21.6801Z" fill="url(#paint1_linear_1792_438)"></path><path d="M21.6801 50.7965C20.8466 50.7965 20.0711 50.345 19.6543 49.6273C19.2376 48.9096 19.2376 48.0067 19.6543 47.289C20.0711 46.5713 20.8466 46.1199 21.6801 46.1199H58.9887C59.8222 46.1199 60.5978 46.5713 61.0145 47.289C61.4312 48.0067 61.4312 48.9096 61.0145 49.6273C60.5978 50.345 59.8222 50.7965 58.9887 50.7965H21.6801Z" fill="url(#paint2_linear_1792_438)"></path><path d="M32.851 28.6289C30.3391 28.6289 28.3018 26.5915 28.3018 24.0796V18.0949C28.3018 15.583 30.3391 13.5457 32.851 13.5457H35.8491C36.7057 13.5457 37.4003 14.2402 37.4003 15.0968C37.4003 15.9534 36.7057 16.648 35.8491 16.648H31.4619L31.4156 18.0833V25.4339L35.826 25.5034C36.7058 25.5034 37.4003 26.1979 37.4003 27.0546C37.4003 27.9112 36.7057 28.6057 35.8491 28.6057H32.851V28.6289Z" fill="url(#paint3_linear_1792_438)"></path><path d="M47.8183 28.6289C45.3064 28.6289 43.269 26.5915 43.269 24.0796V18.0949C43.269 15.583 45.3064 13.5457 47.8183 13.5457H50.8164C51.673 13.5457 52.3676 14.2402 52.3676 15.0968C52.3676 15.9534 51.673 16.648 50.8164 16.648H46.4408L46.3714 25.4455L50.7933 25.515C51.673 25.515 52.3676 26.2095 52.3676 27.0661C52.3676 27.9227 51.673 28.6173 50.8164 28.6173H47.8183V28.6289Z" fill="url(#paint4_linear_1792_438)"></path><defs><linearGradient id="paint0_linear_1792_438" x1="4.28184" y1="-1.43327" x2="81.4805" y2="77.5018" gradientUnits="userSpaceOnUse"><stop stop-color="#8360FF"></stop><stop offset="1" stop-color="#D3137A"></stop></linearGradient><linearGradient id="paint1_linear_1792_438" x1="4.81423" y1="2.27079" x2="77.8803" y2="76.9575" gradientUnits="userSpaceOnUse"><stop stop-color="#8360FF"></stop><stop offset="1" stop-color="#D3137A"></stop></linearGradient><linearGradient id="paint2_linear_1792_438" x1="0.288114" y1="7.51478" x2="73.3426" y2="82.2131" gradientUnits="userSpaceOnUse"><stop stop-color="#8360FF"></stop><stop offset="1" stop-color="#D3137A"></stop></linearGradient><linearGradient id="paint3_linear_1792_438" x1="11.2507" y1="-1.89639" x2="78.1817" y2="66.5394" gradientUnits="userSpaceOnUse"><stop stop-color="#8360FF"></stop><stop offset="1" stop-color="#D3137A"></stop></linearGradient><linearGradient id="paint4_linear_1792_438" x1="20.0712" y1="-8.18203" x2="87.0022" y2="60.2538" gradientUnits="userSpaceOnUse"><stop stop-color="#8360FF"></stop><stop offset="1" stop-color="#D3137A"></stop></linearGradient></defs></svg>